<svg xmlns="http://www.w3.org/2000/svg" viewBox="0 0 512 512">
  <defs>
    <linearGradient id="flameGrad" x1="0%" y1="100%" x2="100%" y2="0%">
      <stop offset="0%" style="stop-color:#FF4E50;stop-opacity:1" />
      <stop offset="100%" style="stop-color:#F9D423;stop-opacity:1" />
    </linearGradient>
  </defs>

  <!-- Outer Flame Body -->
  <path d="M256 480c-88.4 0-160-71.6-160-160 0-80 50-140 120-240 10-14 20-30 40-48 20 18 30 34 40 48 70 100 120 160 120 240 0 88.4-71.6 160-160 160z" fill="url(#flameGrad)"/>

  <!-- Inner Flame/Face Highlight -->
  <path d="M256 420c-55.2 0-100-44.8-100-100 0-40 30-80 70-140 10-15 20-25 30-35 10 10 20 20 30 35 40 60 70 100 70 140 0 55.2-44.8 100-100 100z" fill="#FFFFFF" fill-opacity="0.2"/>

  <!-- Playful Face -->
  <!-- Eyes -->
  <circle cx="216" cy="300" r="18" fill="#2D2D2D"/>
  <circle cx="222" cy="294" r="6" fill="#FFFFFF"/>

  <path d="M280 300 Q296 280 312 300" stroke="#2D2D2D" stroke-width="6" fill="none" stroke-linecap="round"/>

  <!-- Smile -->
  <path d="M230 340 Q256 360 282 340" stroke="#2D2D2D" stroke-width="5" fill="none" stroke-linecap="round"/>

  <!-- Sparkles/Stars -->
  <path d="M400 120 L410 100 L420 120 L440 130 L420 140 L410 160 L400 140 L380 130 Z" fill="#F9D423"/>
  <path d="M100 380 L110 360 L120 380 L140 390 L120 400 L110 420 L100 400 L80 390 Z" fill="#F9D423"/>
</svg>